<?xml version="1.0" encoding="utf-8"?>
<!-- Generator: Adobe Illustrator 15.1.0, SVG Export Plug-In . SVG Version: 6.00 Build 0)  -->
<!DOCTYPE svg PUBLIC "-//W3C//DTD SVG 1.1//EN" "http://www.w3.org/Graphics/SVG/1.1/DTD/svg11.dtd">
<svg version="1.1" id="Capa_1" xmlns="http://www.w3.org/2000/svg" xmlns:xlink="http://www.w3.org/1999/xlink" x="0px" y="0px"
	 width="200px" height="50px" viewBox="0 0 200 50" enable-background="new 0 0 200 50" xml:space="preserve">
<g>
	<g id="Layer_1_copy_5_">
		<path fill="#FFFFFF" d="M53.296,8.048c-0.557-1.117-1.438-2.038-2.53-2.73C49.625,4.619,48.278,4.13,46.74,3.84
			c-1.565-0.283-3.374-0.412-5.47-0.432l-9.674,0.007c-1.005,0.013-1.991,0.796-2.227,1.768L22.86,33.533
			c-0.236,0.959,0.395,1.762,1.4,1.762h4.633c1.005,0,2.001-0.779,2.224-1.762l1.589-6.883c0.212-0.958,1.205-1.759,2.22-1.759
			h1.326c5.665-0.006,10.052-1.163,13.203-3.481c3.168-2.322,4.731-5.389,4.731-9.188C54.184,10.559,53.91,9.161,53.296,8.048z
			 M43.305,17.311c-1.4,1.025-3.347,1.538-5.857,1.538h-1.134c-1.009,0-1.626-0.796-1.407-1.768l1.393-6.021
			c0.196-0.965,1.211-1.765,2.207-1.758l1.518-0.01c1.771,0,3.125,0.307,4.029,0.9c0.895,0.587,1.343,1.522,1.336,2.761
			C45.417,14.837,44.698,16.284,43.305,17.311z M106.99,13.608L88.533,44.823c-0.594,0.976-1.907,1.762-2.905,1.762l-4.798,0.007
			c-0.996,0-1.323-0.793-0.715-1.765l4.103-7.146c0,0,0.331-0.415,0.037-2.743c-0.631-4.222-3.782-22.156-3.782-22.156
			c-0.227-0.972,0.388-1.768,1.387-1.768l4.15-0.007c1.272,0,2.295,0.837,2.524,1.815l2.065,12.441l0.769,0.01
			c0.645-1.144,7.278-12.529,7.278-12.529c0.634-0.962,1.917-1.768,2.916-1.768c0,0,4.457,0.014,5.554,0
			C108.765,10.939,106.99,13.608,106.99,13.608z M137.422,8.152c-0.58-1.124-1.451-2.031-2.551-2.74
			c-1.127-0.701-2.463-1.194-4.025-1.478c-1.535-0.273-3.366-0.422-5.448-0.425l-9.688,0.006c-1.01,0.018-1.979,0.8-2.211,1.762
			l-6.516,28.364c-0.236,0.961,0.412,1.758,1.397,1.758l4.64-0.007c0.985,0.007,1.994-0.783,2.227-1.755l1.569-6.886
			c0.229-0.959,1.226-1.766,2.227-1.759h1.326c5.673,0,10.068-1.167,13.232-3.479c3.129-2.338,4.711-5.398,4.711-9.201
			C138.297,10.655,138.01,9.256,137.422,8.152z M127.432,17.429c-1.396,1.005-3.347,1.518-5.845,1.518h-1.153
			c-0.995,0.01-1.64-0.8-1.417-1.764l1.403-6.011c0.206-0.961,1.212-1.768,2.214-1.758l1.501-0.01
			c1.782,0.01,3.118,0.304,4.029,0.897c0.906,0.594,1.336,1.524,1.346,2.76C129.52,14.944,128.82,16.396,127.432,17.429z
			 M75.633,12.101c-1.748-0.986-4.508-1.479-8.28-1.479c-1.866,0-3.725,0.146-5.604,0.436c-1.387,0.213-1.522,0.253-2.375,0.438
			c-1.762,0.385-2.038,2.143-2.038,2.143l-0.567,2.332c-0.321,1.487,0.537,1.431,0.894,1.306c0.77-0.229,1.198-0.466,2.771-0.817
			c1.501-0.34,3.084-0.597,4.339-0.58c1.853,0,3.27,0.195,4.214,0.595c0.932,0.404,1.397,1.1,1.397,2.105l-0.081,0.654l-0.668,0.411
			c-2.628,0.166-4.528,0.409-6.833,0.742c-2.254,0.314-4.231,0.864-5.875,1.616c-1.765,0.777-3.074,1.819-3.989,3.146
			c-0.884,1.333-1.326,2.949-1.326,4.845c0,1.785,0.641,3.26,1.886,4.4c1.252,1.12,2.905,1.667,4.883,1.667
			c1.252-0.006,2.22-0.104,2.909-0.27l2.244-0.773l1.899-1.053l1.748-1.153l0.023,0.033l-0.175,0.742l-0.01,0.031v0.006
			c-0.189,0.905,0.358,1.647,1.238,1.735l0.017,0.02h0.081h3.553h0.668l0.061-0.026c0.924-0.108,1.792-0.851,1.994-1.734
			l3.378-14.621l0.175-1.191l0.081-1.116C78.279,14.617,77.385,13.082,75.633,12.101z M68.163,28.539l-0.723,0.952l-1.822,0.94
			c-0.857,0.348-1.67,0.524-2.423,0.524c-1.14,0-2.035-0.166-2.638-0.503l-0.895-1.738c0-0.941,0.216-1.688,0.678-2.261l1.964-1.336
			c0.84-0.283,1.866-0.523,3.054-0.688c1.06-0.132,3.151-0.371,3.425-0.378l0.32,0.563C69.043,24.936,68.45,27.419,68.163,28.539z
			 M159.775,12.12c-1.758-0.985-4.514-1.481-8.275-1.481c-1.867,0-3.729,0.146-5.602,0.445c-1.391,0.203-1.529,0.247-2.387,0.429
			c-1.758,0.382-2.031,2.146-2.031,2.146l-0.566,2.328c-0.316,1.488,0.52,1.421,0.912,1.306c0.771-0.229,1.188-0.456,2.746-0.819
			c1.494-0.338,3.09-0.588,4.35-0.581c1.846,0,3.262,0.199,4.203,0.598c0.939,0.405,1.396,1.106,1.396,2.103l-0.07,0.65l-0.66,0.423
			c-2.656,0.158-4.559,0.4-6.84,0.734c-2.248,0.314-4.232,0.86-5.879,1.616c-1.758,0.78-3.084,1.822-3.988,3.152
			c-0.893,1.332-1.328,2.945-1.328,4.824c0,1.799,0.633,3.273,1.895,4.407c1.26,1.117,2.896,1.678,4.873,1.678
			c1.246-0.014,2.215-0.096,2.906-0.273l2.236-0.764l1.916-1.052l1.734-1.168l0.031,0.037l-0.158,0.749l-0.018,0.014l0.006,0.014
			c-0.207,0.904,0.342,1.653,1.232,1.734l0.008,0.017h0.08l0,0c0.584,0,2.602,0,3.563,0h0.656l0.07-0.023
			c0.914-0.111,1.777-0.854,1.971-1.748l3.387-14.6l0.18-1.198l0.098-1.12C162.426,14.631,161.541,13.102,159.775,12.12z
			 M152.322,28.56l-0.752,0.962l-1.807,0.935c-0.855,0.344-1.672,0.523-2.412,0.523c-1.178,0-2.047-0.169-2.635-0.507l-0.904-1.73
			c0-0.945,0.221-1.684,0.662-2.269c0.449-0.549,1.133-1.001,1.984-1.332c0.83-0.283,1.855-0.514,3.049-0.685
			c1.053-0.132,3.139-0.378,3.408-0.381l0.328,0.563C153.197,24.959,152.6,27.433,152.322,28.56z M177.146,5.504l0.014,0.003
			l-6.201,28.111l-0.223,0.337c-0.361,0.79-1.154,1.431-1.998,1.431h-4.309l-0.07-0.098c-0.824-0.125-1.357-0.779-1.164-1.646
			l-0.008-0.021l0.189-0.81l5.801-26.367l0.209-0.917l0.229-0.357c0.375-0.776,1.141-1.407,1.992-1.407h4.148
			C176.752,3.749,177.359,4.535,177.146,5.504z"/>
	</g>
</g>
</svg>
